<svg xmlns="http://www.w3.org/2000/svg" width="363" height="266" viewBox="0 0 363 266" fill="none">
    <style>.a{fill:#DE032B;}.b{fill:white;}</style>
    <path d="M177.2 264.7C168.2 245.6 117.2 232.9 92.8 228.9 136.5 219.3 167.4 233.4 177.3 241.7 196.4 209.6 217.6 228.5 225.8 241.9 267.7 214.3 312.4 226 329.4 235.9 328.5 228.1 328.2 219.8 328.1 216.6 281 196 242.9 212.5 225.9 224.3 254.8 172.7 315.2 192.5 340.4 206.4 340.5 230.7 344.7 256 346.8 265.6 283.8 218.9 239.8 245.7 225.7 264.9 204.2 222.8 184.4 247.2 177.2 264.7Z"
          class="a"/>
    <path d="M211.1 189.7C257.7 190 353.2 174.5 362.2 110.2L323.2 121.2C321.8 135.9 297.5 170.3 211.1 189.7 242.9 177.9 303.9 147.5 318.5 106.6L323.2 67.6 287.2 88.9C292.1 104.4 283.7 146.2 211.1 189.7 251.6 152 314.9 61.5 244 0.6L225.9 53.3C241.8 74.2 261.1 130.6 211.1 189.7 233.5 151.1 255.5 60.4 164.8 7L164.8 67.6C188.1 77.2 230 115.2 211.1 189.7Z"
          class="a"/>
    <path d="M0.1 109.5H15.4C22.2 109.5 27.2 110.7 30.5 113 33.9 115.2 35.6 118.7 35.6 123.4 35.6 126.6 34.9 129.3 33.4 131.4 32 133.5 29.8 135.1 26.8 136.2V136.5C30.6 137.5 33.4 139.2 35.2 141.5 37 143.8 37.9 146.8 37.9 150.7 37.9 156.3 36.3 160.4 33.1 163.2 29.9 165.9 25.1 167.2 18.6 167.2H0.1V109.5ZM17.3 133.8C20.8 133.8 23.5 133 25.3 131.4 27.1 129.7 28 127.2 28 123.9 28 121 27 118.9 25 117.6 23 116.3 19.9 115.6 15.6 115.6H7.7V133.8H17.3ZM18.8 161.1C26.5 161.1 30.4 157.6 30.4 150.6 30.4 146.8 29.2 144 26.8 142.2 24.4 140.5 20.6 139.6 15.5 139.6H7.7V161.1H18.8Z"
          class="b"/>
    <path d="M69.3 168C64.3 168 59.9 166.9 56.3 164.5 52.6 162.1 49.7 158.6 47.8 154.2 45.8 149.7 44.8 144.4 44.8 138.4 44.8 132.3 45.8 127.1 47.8 122.6 49.7 118.1 52.6 114.7 56.3 112.3 59.9 109.9 64.3 108.7 69.3 108.7 74.3 108.7 78.6 109.9 82.2 112.3 85.9 114.7 88.7 118.1 90.7 122.6 92.7 127.1 93.7 132.3 93.7 138.4 93.7 144.4 92.7 149.7 90.7 154.2 88.7 158.6 85.9 162.1 82.2 164.5 78.6 166.9 74.3 168 69.3 168ZM69.3 161.9C72.7 161.9 75.6 161 78.2 159.1 80.8 157.1 82.7 154.4 84 150.9 85.4 147.3 86.1 143.2 86.1 138.4 86.1 133.6 85.4 129.4 84 125.9 82.7 122.4 80.8 119.6 78.2 117.7 75.6 115.8 72.7 114.8 69.3 114.8 65.8 114.8 62.8 115.8 60.3 117.7 57.8 119.6 55.8 122.4 54.4 125.9 53.1 129.4 73.2 133.3 73.2 138.1 73.2 142.9 53.1 147.3 54.4 150.9 55.8 154.4 57.8 157.1 60.3 159.1 62.8 161 65.8 161.9 69.3 161.9Z"
          class="b"/>
    <path d="M123.8 168C118.8 168 114.4 166.9 110.7 164.5 107.1 162.1 104.2 158.6 102.3 154.2 100.3 149.7 99.3 144.4 99.3 138.4 99.3 132.3 100.3 127.1 102.3 122.6 104.2 118.1 107.1 114.7 110.7 112.3 114.4 109.9 118.8 108.7 123.8 108.7 128.8 108.7 133.1 109.9 136.7 112.3 140.4 114.7 143.2 118.1 145.2 122.6 147.2 127.1 148.2 132.3 148.2 138.4 148.2 144.4 147.2 149.7 145.2 154.2 143.2 158.6 140.4 162.1 136.7 164.5 133.1 166.9 128.8 168 123.8 168ZM123.8 161.9C127.2 161.9 130.1 161 132.7 159.1 135.3 157.1 137.2 154.4 138.5 150.9 139.9 147.3 140.6 143.2 140.6 138.4 140.6 133.6 139.9 129.4 138.5 125.9 137.2 122.4 135.3 119.6 132.7 117.7 130.1 115.8 127.2 114.8 123.8 114.8 120.3 114.8 117.3 115.8 114.8 117.7 112.3 119.6 110.3 122.4 108.9 125.9 107.6 129.4 126.6 133.7 126.6 138.5 126.6 143.2 107.6 147.3 108.9 150.9 110.3 154.4 112.3 157.1 114.8 159.1 117.3 161 120.3 161.9 123.8 161.9Z"
          class="b"/>
    <path d="M191.8 167.2L173.4 138.5 165.2 148.3V167.2H157.6V109.5H165.2V138.1L188.6 109.5H197.5L178.4 132.4 200 167.2H191.8Z"
          class="b"/>
    <path d="M34.8 201.7C31.1 200.6 28.4 199.3 26.7 197.8 25 196.2 24.1 194.3 24.1 192 24.1 189.4 25.2 187.2 27.2 185.6 29.3 183.9 32 183 35.3 183 37.6 183 39.6 183.4 41.4 184.3 43.2 185.2 44.5 186.4 45.5 187.9 46.5 189.5 47 191.2 47 193H42.6C42.6 191 42 189.4 40.7 188.3 39.4 187.1 37.6 186.6 35.3 186.6 33.2 186.6 31.5 187 30.3 188 29.1 188.9 28.5 190.2 28.5 191.9 28.5 193.3 29.1 194.4 30.2 195.3 31.4 196.3 33.3 197.1 36 197.9 38.8 198.6 40.9 199.5 42.5 200.4 44 201.3 45.2 202.4 45.9 203.7 46.7 204.9 47 206.4 47 208 47 210.7 46 212.8 43.9 214.5 41.8 216.1 39 216.9 35.6 216.9 33.3 216.9 31.2 216.4 29.2 215.6 27.3 214.7 25.7 213.5 24.7 212 23.6 210.5 23.1 208.8 23.1 206.9H27.5C27.5 208.9 28.2 210.4 29.7 211.6 31.1 212.7 33.1 213.3 35.6 213.3 37.9 213.3 39.6 212.8 40.8 211.9 42.1 211 42.7 209.7 42.7 208.1 42.7 206.5 42.1 205.2 41 204.3 39.8 203.5 37.8 202.6 34.8 201.7Z"
          class="b"/>
    <path d="M75.4 187H64.8V216.4H60.5V187H49.9V183.5H75.4V187Z" class="b"/>
    <path d="M105 201C105 204.2 104.5 207 103.4 209.5 102.3 211.9 100.8 213.7 98.8 215 96.8 216.2 94.5 216.9 91.8 216.9 89.2 216.9 86.9 216.2 84.9 215 82.9 213.7 81.3 211.9 80.2 209.5 79.1 207.1 78.5 204.4 78.5 201.3V198.9C78.5 195.7 79.1 192.9 80.2 190.5 81.3 188.1 82.8 186.2 84.8 184.9 86.8 183.6 89.2 183 91.7 183 94.4 183 96.7 183.6 98.7 184.9 100.7 186.2 102.3 188 103.4 190.5 104.5 192.9 105 195.7 105 198.9V201ZM100.7 198.9C100.7 195 99.9 192 98.3 189.9 96.8 187.8 94.6 186.7 91.7 186.7 89 186.7 86.8 187.8 85.3 189.9 83.7 192 82.9 194.9 82.8 198.6V201C82.8 204.8 83.6 207.8 85.2 209.9 86.8 212.1 89 213.2 91.8 213.2 94.6 213.2 96.8 212.2 98.3 210.1 99.9 208.1 100.6 205.1 100.7 201.3V198.9Z"
          class="b"/>
    <path d="M123.6 203.1H115.9V216.4H111.5V183.5H122.4C126.1 183.5 129 184.3 131 186 133 187.7 134 190.1 134 193.4 134 195.4 133.4 197.2 132.3 198.7 131.2 200.3 129.7 201.4 127.7 202.1L135.4 216.1V216.4H130.8L123.6 203.1ZM115.9 199.5H122.6C124.7 199.5 126.4 199 127.7 197.8 129 196.7 129.6 195.2 129.6 193.4 129.6 191.3 129 189.8 127.8 188.7 126.6 187.6 124.8 187 122.5 187H115.9V199.5Z"
          class="b"/>
    <path d="M158.7 201.2H144.5V212.9H161V216.4H140.1V183.5H160.8V187H144.5V197.6H158.7V201.2Z" class="b"/>
</svg>
