<svg xmlns="http://www.w3.org/2000/svg" viewBox="0 0 436 436">
    <defs>
        <style>.cls-1{fill:#fff;}.cls-2{fill:#de032b;}.cls-3{fill:#110608;}</style>
    </defs>
    <g id="l_2">
        <g id="l_1-2">
            <circle class="cls-1" cx="218" cy="218" r="215.93"/>
            <path class="cls-2"
                  d="M218,0C97.6,0,0,97.6,0,218S97.6,436,218,436s218-97.6,218-218S338.4,0,218,0Zm0,427C102.76,427,9,333.24,9,218S102.76,9,218,9s209,93.76,209,209S333.24,427,218,427Z"/>
            <circle class="cls-3" cx="218" cy="218" r="200.05"/>
            <path class="cls-2"
                  d="M214.05,317.15c-9-19.1-60-31.8-84.4-35.8,43.7-9.6,74.6,4.5,84.5,12.8,19.1-32.1,40.3-13.2,48.5.2,41.9-27.6,86.6-15.9,103.6-6-.9-7.8-1.2-16.1-1.3-19.3-47.1-20.6-85.2-4.1-102.2,7.7,28.9-51.6,89.3-31.8,114.5-17.9a321,321,0,0,0,6.4,59.2c-63-46.7-107-19.9-121.1-.7C241.05,275.25,221.25,299.65,214.05,317.15Z"/>
            <path class="cls-2"
                  d="M248,242.15c46.6.3,142.1-15.2,151.1-79.5l-39,11c-1.4,14.7-25.7,49.1-112.1,68.5,28.42-10.55,80.14-35.94,101.25-70.41A51.36,51.36,0,0,0,356.32,151l3.73-30.92-36,21.3c4.9,15.5-3.5,57.3-76.1,100.8,40.5-37.7,103.8-128.2,32.9-189.1l-18.1,52.7c15.9,20.9,35.2,77.3-14.8,136.4,22.4-38.6,44.4-129.3-46.3-182.7v60.6C225,129.65,266.85,167.65,248,242.15Z"/>
            <path class="cls-1"
                  d="M37,162h15.3c6.8,0,11.8,1.2,15.1,3.5s5.1,5.7,5.1,10.4a13.48,13.48,0,0,1-2.2,8,13,13,0,0,1-6.6,4.8v.3c3.8,1,6.6,2.7,8.4,5s2.7,5.3,2.7,9.2c0,5.6-1.6,9.7-4.8,12.5s-8,4-14.5,4H37Zm17.2,24.3c3.5,0,6.2-.8,8-2.4s2.7-4.2,2.7-7.5q0-4.35-3-6.3c-2-1.3-5.1-2-9.4-2h-7.9v18.2Zm1.5,27.3c7.7,0,11.6-3.5,11.6-10.5q0-5.7-3.6-8.4c-2.4-1.7-6.2-2.6-11.3-2.6h-7.8v21.5Z"/>
            <path class="cls-1"
                  d="M106.15,220.45a22.05,22.05,0,0,1-21.5-13.8,43.11,43.11,0,0,1,0-31.6,22.31,22.31,0,0,1,8.5-10.3,23,23,0,0,1,13-3.6,22.31,22.31,0,0,1,21.4,13.9,43.11,43.11,0,0,1,0,31.6,23.47,23.47,0,0,1-8.5,10.3A22.67,22.67,0,0,1,106.15,220.45Zm0-6.1a14.52,14.52,0,0,0,8.9-2.8,17.79,17.79,0,0,0,5.8-8.2,34.1,34.1,0,0,0,2.1-12.5,33.73,33.73,0,0,0-2.1-12.5,17.28,17.28,0,0,0-5.8-8.2,15.26,15.26,0,0,0-17.9,0,18.92,18.92,0,0,0-5.9,8.2c-1.3,3.5,18.8,7.4,18.8,12.2s-20.1,9.2-18.8,12.8a19.53,19.53,0,0,0,5.9,8.2A14.41,14.41,0,0,0,106.15,214.35Z"/>
            <path class="cls-1"
                  d="M160.65,220.45a23.56,23.56,0,0,1-13.1-3.5,23.28,23.28,0,0,1-8.4-10.3,43.11,43.11,0,0,1,0-31.6,22.74,22.74,0,0,1,8.4-10.3,23.61,23.61,0,0,1,13.1-3.6,22.31,22.31,0,0,1,21.4,13.9,43.11,43.11,0,0,1,0,31.6,23.47,23.47,0,0,1-8.5,10.3A22.67,22.67,0,0,1,160.65,220.45Zm0-6.1a14.52,14.52,0,0,0,8.9-2.8,17.79,17.79,0,0,0,5.8-8.2,34.1,34.1,0,0,0,2.1-12.5,33.73,33.73,0,0,0-2.1-12.5,17.28,17.28,0,0,0-5.8-8.2,15.26,15.26,0,0,0-17.9,0,18.92,18.92,0,0,0-5.9,8.2c-1.3,3.5,17.7,7.8,17.7,12.6s-19,8.8-17.7,12.4a19.53,19.53,0,0,0,5.9,8.2A14.41,14.41,0,0,0,160.65,214.35Z"/>
            <path class="cls-1"
                  d="M228.65,219.65,210.25,191l-8.2,9.8v18.9h-7.6V162h7.6v28.6l23.4-28.6h8.9l-19.1,22.9,21.6,34.8Z"/>
            <path class="cls-1"
                  d="M71.65,254.15q-5.55-1.65-8.1-3.9a7.67,7.67,0,0,1-2.6-5.8,8,8,0,0,1,3.1-6.4,12.49,12.49,0,0,1,8.1-2.6,13.34,13.34,0,0,1,6.1,1.3,10.31,10.31,0,0,1,4.1,3.6,9.46,9.46,0,0,1,1.5,5.1h-4.4a5.83,5.83,0,0,0-1.9-4.7,7.62,7.62,0,0,0-5.4-1.7,7.63,7.63,0,0,0-5,1.4,4.58,4.58,0,0,0-1.8,3.9,4.22,4.22,0,0,0,1.7,3.4,16.68,16.68,0,0,0,5.8,2.6,26,26,0,0,1,6.5,2.5,9,9,0,0,1,3.4,3.3,7.67,7.67,0,0,1,1.1,4.3,7.87,7.87,0,0,1-3.1,6.5,13.4,13.4,0,0,1-8.3,2.4,17,17,0,0,1-6.4-1.3,10.91,10.91,0,0,1-4.5-3.6,8.36,8.36,0,0,1-1.6-5.1h4.4a5.61,5.61,0,0,0,2.2,4.7,9.41,9.41,0,0,0,5.9,1.7,8.48,8.48,0,0,0,5.2-1.4,4.35,4.35,0,0,0,1.9-3.8,4.72,4.72,0,0,0-1.7-3.8A24.18,24.18,0,0,0,71.65,254.15Z"/>
            <path class="cls-1" d="M112.25,239.45h-10.6v29.4h-4.3v-29.4H86.75V236h25.5Z"/>
            <path class="cls-1"
                  d="M141.85,253.45a20.79,20.79,0,0,1-1.6,8.5,12.53,12.53,0,0,1-4.6,5.5,13.66,13.66,0,0,1-13.9,0,12.73,12.73,0,0,1-4.7-5.5,19.37,19.37,0,0,1-1.7-8.2v-2.4a20,20,0,0,1,1.7-8.4,12.81,12.81,0,0,1,4.6-5.6,12.68,12.68,0,0,1,18.6,5.6,20,20,0,0,1,1.6,8.4Zm-4.3-2.1q0-5.85-2.4-9a7.63,7.63,0,0,0-6.6-3.2,7.52,7.52,0,0,0-6.4,3.2c-1.6,2.1-2.4,5-2.5,8.7v2.4c0,3.8.8,6.8,2.4,8.9a7.72,7.72,0,0,0,6.6,3.3,7.5,7.5,0,0,0,6.5-3.1c1.6-2,2.3-5,2.4-8.8Z"/>
            <path class="cls-1"
                  d="M160.45,255.55h-7.7v13.3h-4.4V236h10.9c3.7,0,6.6.8,8.6,2.5s3,4.1,3,7.4a9.19,9.19,0,0,1-6.3,8.7l7.7,14v.3h-4.6Zm-7.7-3.6h6.7a7.17,7.17,0,0,0,5.1-1.7,5.48,5.48,0,0,0,1.9-4.4,6,6,0,0,0-1.8-4.7,7.66,7.66,0,0,0-5.3-1.7h-6.6Z"/>
            <path class="cls-1" d="M195.55,253.65h-14.2v11.7h16.5v3.5H177V236h20.7v3.5h-16.3v10.6h14.2Z"/>
        </g>
    </g>
</svg>