<?xml version="1.0" standalone="no"?>
<!DOCTYPE svg PUBLIC "-//W3C//DTD SVG 20010904//EN"
 "http://www.w3.org/TR/2001/REC-SVG-20010904/DTD/svg10.dtd">
<svg version="1.0" xmlns="http://www.w3.org/2000/svg"
 width="700.000000pt" height="700.000000pt" viewBox="0 0 700.000000 700.000000"
 preserveAspectRatio="xMidYMid meet">
<metadata>
Created by potrace 1.11, written by Peter Selinger 2001-2013
</metadata>
<g transform="translate(0.000000,700.000000) scale(0.100000,-0.100000)"
fill="#000000" stroke="none">
<path d="M2110 6962 c-2 -124 2 -546 11 -1295 l3 -219 60 -46 c184 -141 314
-272 490 -493 10 -13 57 -83 105 -155 179 -270 313 -576 395 -901 28 -111 30
-121 52 -253 8 -52 17 -106 19 -119 25 -143 25 -685 0 -781 -2 -8 -7 -44 -10
-80 -4 -36 -8 -67 -10 -70 -2 -3 -6 -25 -9 -50 -7 -51 -5 -44 -41 -205 -36
-164 -79 -319 -130 -463 -14 -40 -23 -76 -21 -81 3 -4 1 -13 -5 -21 -13 -22
-12 12 5 128 8 53 17 131 21 172 3 41 8 102 11 135 15 168 3 584 -20 765 -3
19 -8 60 -11 90 -3 30 -8 62 -10 70 -2 8 -7 35 -10 60 -10 67 -43 236 -61 305
-9 33 -17 68 -19 77 -9 45 -52 186 -92 302 -100 289 -231 556 -387 791 -238
359 -542 665 -900 907 -66 44 -126 82 -135 85 -9 4 -23 12 -31 18 -17 14 -139
80 -250 136 -133 66 -374 162 -550 219 -64 20 -314 88 -354 96 -37 7 -61 12
-90 19 -33 9 -37 27 41 -195 30 -85 60 -173 68 -195 26 -73 132 -378 198 -565
36 -102 100 -284 142 -405 43 -121 80 -223 84 -227 3 -3 35 -9 71 -13 97 -10
242 -41 355 -76 797 -247 1429 -903 1717 -1784 46 -139 110 -392 132 -515 9
-47 17 -94 20 -105 2 -11 7 -45 10 -75 4 -30 8 -66 10 -80 3 -14 7 -52 11 -85
4 -32 8 -62 11 -66 4 -7 301 102 396 145 31 14 59 26 62 26 2 0 33 13 68 29
35 16 86 39 113 51 64 29 427 210 440 220 6 4 46 27 90 50 116 62 341 200 480
293 428 286 782 598 1036 912 75 92 189 252 189 264 0 5 3 11 8 13 27 12 186
329 235 468 42 120 82 280 92 375 3 22 7 54 10 70 6 40 6 297 0 356 -5 55 -25
182 -29 186 -2 2 -167 -109 -191 -129 -5 -5 -163 -117 -350 -249 -187 -132
-347 -246 -357 -253 -14 -12 -15 -21 -6 -58 12 -53 3 -218 -17 -312 -48 -223
-169 -490 -337 -740 -87 -130 -220 -302 -298 -386 -8 -9 -30 -34 -49 -55 -105
-123 -363 -373 -541 -524 -96 -81 -100 -84 -195 -159 -44 -35 -88 -70 -97 -77
-120 -97 -496 -359 -684 -478 -54 -33 -54 -19 -2 93 66 139 118 258 165 375
24 61 48 119 53 130 75 163 276 833 314 1049 3 16 10 52 15 80 22 111 29 149
55 326 17 118 24 181 32 290 3 41 7 98 9 125 6 69 6 407 0 480 -17 223 -42
388 -85 570 -187 783 -683 1366 -1437 1689 l-83 35 0 -37z"/>
<path d="M4758 5918 c-15 -20 -33 -42 -40 -50 -7 -7 -42 -49 -78 -93 -35 -44
-67 -82 -70 -85 -3 -3 -48 -57 -100 -120 -52 -63 -105 -126 -117 -140 -22 -27
-269 -324 -292 -353 -11 -14 -9 -23 18 -63 62 -94 121 -286 140 -459 11 -99 7
-354 -8 -455 -6 -41 -14 -93 -17 -115 -9 -64 -62 -281 -96 -390 -167 -543
-521 -1165 -1016 -1784 -65 -81 -27 -62 87 44 30 27 89 81 130 120 170 156
480 476 612 630 19 21 41 46 49 55 9 9 61 72 116 140 476 592 763 1110 888
1606 14 54 28 122 32 149 3 28 8 52 9 56 5 8 17 141 20 212 1 33 -4 86 -12
116 -7 31 -15 65 -17 76 -2 11 -21 94 -41 185 -40 174 -59 262 -94 425 -12 55
-34 151 -49 214 l-27 114 -27 -35z"/>
<path d="M5015 2080 c-27 -4 -70 -10 -95 -14 -270 -37 -586 -177 -800 -354
-133 -110 -300 -304 -390 -452 -18 -30 -40 -66 -49 -80 l-16 -25 30 20 c148
96 345 201 480 255 153 62 382 133 495 155 8 1 35 6 60 11 25 4 47 8 50 9 7 1
120 17 145 20 182 22 461 22 635 0 103 -12 128 -16 150 -20 14 -3 41 -7 60
-10 163 -26 444 -111 645 -196 l71 -30 3 -92 c1 -51 4 -119 6 -152 8 -111 16
-200 21 -246 l5 -46 -98 49 c-144 71 -367 150 -526 184 -72 16 -177 36 -207
40 -19 2 -44 6 -55 8 -27 5 -129 16 -195 21 -66 5 -364 6 -400 1 -14 -2 -59
-7 -100 -11 -41 -4 -84 -9 -95 -11 -11 -1 -40 -6 -65 -9 -77 -10 -301 -64
-400 -96 -208 -67 -406 -158 -604 -278 -105 -63 -109 -65 -123 -46 -124 178
-226 284 -351 366 -136 90 -267 124 -402 104 -30 -4 -55 -7 -55 -6 0 7 -144
-64 -183 -90 -74 -50 -195 -181 -268 -289 l-67 -99 -30 22 c-80 59 -120 84
-212 133 -55 29 -143 69 -195 89 -52 20 -104 41 -115 46 -72 33 -396 107 -540
125 -27 3 -61 8 -75 10 -144 24 -627 23 -745 -1 -11 -2 -42 -6 -70 -9 -88 -10
-138 -18 -234 -37 -95 -19 -121 -28 -85 -30 29 -1 74 -8 124 -19 46 -11 69
-15 130 -26 19 -4 100 -22 180 -41 80 -19 152 -36 160 -38 158 -34 472 -129
715 -217 481 -173 826 -387 955 -591 l35 -56 53 107 c122 243 264 407 418 483
85 43 90 44 183 44 105 0 158 -17 251 -79 66 -44 188 -170 251 -261 61 -86
169 -269 169 -285 0 -21 26 -8 48 24 31 46 154 170 231 235 230 191 525 328
836 390 138 27 208 33 365 34 179 1 312 -12 485 -47 387 -79 832 -285 1247
-577 71 -49 131 -89 134 -89 3 0 2 9 -1 20 -4 11 -8 33 -10 48 -2 15 -10 61
-19 102 -8 41 -17 93 -21 115 -3 22 -10 67 -15 100 -18 117 -40 282 -55 420
-12 111 -14 130 -20 210 -3 44 -8 94 -10 110 -5 40 -17 276 -20 400 -2 55 -3
106 -4 113 -1 18 -317 169 -482 230 -238 88 -543 168 -724 188 -33 3 -69 9
-80 11 -33 9 -466 11 -520 3z"/>
</g>
</svg>
