<svg width="363" height="266" viewBox="0 0 363 266" fill="none" xmlns="http://www.w3.org/2000/svg">
<g id="logo">
<g id="Vector">
<path d="M177.208 264.673C168.204 245.577 117.153 232.877 92.7527 228.914C136.472 219.299 167.356 233.422 177.333 241.686C196.421 209.608 217.588 228.495 225.785 241.949C267.734 214.263 312.37 225.998 329.44 235.942C328.549 228.056 328.165 219.79 328.085 216.642C281.027 196.027 242.875 212.486 225.881 224.298C254.766 172.733 315.178 192.491 340.4 206.447C340.502 230.748 344.704 256.002 346.793 265.591C283.763 218.947 239.776 245.719 225.661 264.935C204.172 222.785 184.405 247.198 177.208 264.673Z" fill="#D34141"/>
<path d="M211.102 189.677C257.735 189.997 353.241 174.54 362.198 110.151L323.161 121.187C321.801 135.928 297.486 170.264 211.102 189.677C242.873 177.9 303.948 147.515 318.476 106.619L323.19 67.6402L287.19 88.8819C292.081 104.364 283.712 146.197 211.102 189.677C251.597 152.038 314.877 61.5266 244.036 0.587036L225.887 53.2798C241.795 74.1501 261.111 130.648 211.102 189.677C233.476 151.053 255.548 60.4401 164.837 6.98531L164.804 67.554C188.102 77.2177 229.978 115.172 211.102 189.677Z" fill="#D34141"/>
</g>
<g id="BOOK">
<path d="M0.13147 109.521H15.3798C22.1934 109.521 27.2487 110.675 30.5457 112.983C33.8976 115.236 35.5735 118.698 35.5735 123.368C35.5735 126.61 34.8592 129.275 33.4305 131.363C32.0018 133.451 29.7764 135.072 26.7542 136.226V136.474C30.6006 137.518 33.403 139.194 35.1614 141.502C36.9747 143.754 37.8814 146.832 37.8814 150.733C37.8814 156.283 36.2878 160.431 33.1008 163.179C29.9138 165.871 25.0783 167.218 18.5943 167.218H0.13147V109.521ZM17.2755 133.836C20.7923 133.836 23.4573 133.012 25.2706 131.363C27.0839 129.66 27.9906 127.187 27.9906 123.945C27.9906 121.033 27.0015 118.918 25.0233 117.599C23.0452 116.28 19.9131 115.621 15.6271 115.621H7.71442V133.836H17.2755ZM18.8416 161.118C26.5344 161.118 30.3808 157.602 30.3808 150.568C30.3808 146.777 29.172 144.002 26.7542 142.243C24.3914 140.485 20.6274 139.606 15.4622 139.606H7.71442V161.118H18.8416Z" fill="black"/>
<path d="M69.2737 168.042C64.2733 168.042 59.9324 166.86 56.2508 164.498C52.5692 162.08 49.7394 158.646 47.7612 154.195C45.783 149.689 44.794 144.414 44.794 138.369C44.794 132.325 45.783 127.077 47.7612 122.627C49.7394 118.121 52.5692 114.686 56.2508 112.324C59.9324 109.906 64.2733 108.697 69.2737 108.697C74.274 108.697 78.5875 109.906 82.2142 112.324C85.8957 114.686 88.7256 118.121 90.7038 122.627C92.6819 127.077 93.671 132.325 93.671 138.369C93.671 144.414 92.6819 149.689 90.7038 154.195C88.7256 158.646 85.8957 162.08 82.2142 164.498C78.5875 166.86 74.274 168.042 69.2737 168.042ZM69.2737 161.942C72.6805 161.942 75.6478 160.981 78.1754 159.058C80.758 157.134 82.7087 154.414 84.0275 150.898C85.4012 147.326 86.0881 143.15 86.0881 138.369C86.0881 133.589 85.4012 129.44 84.0275 125.923C82.7087 122.352 80.758 119.604 78.1754 117.681C75.6478 115.758 72.6805 114.796 69.2737 114.796C65.8119 114.796 62.8172 115.758 60.2896 117.681C57.7619 119.604 55.8112 122.352 54.4375 125.923C53.0638 129.44 73.2062 133.342 73.2062 138.122C73.2062 142.903 53.0638 147.326 54.4375 150.898C55.8112 154.414 57.7619 157.134 60.2896 159.058C62.8172 160.981 65.8119 161.942 69.2737 161.942Z" fill="black"/>
<path d="M123.766 168.042C118.766 168.042 114.425 166.86 110.744 164.498C107.062 162.08 104.232 158.646 102.254 154.195C100.276 149.689 99.2867 144.414 99.2867 138.369C99.2867 132.325 100.276 127.077 102.254 122.627C104.232 118.121 107.062 114.686 110.744 112.324C114.425 109.906 118.766 108.697 123.766 108.697C128.767 108.697 133.08 109.906 136.707 112.324C140.388 114.686 143.218 118.121 145.197 122.627C147.175 127.077 148.164 132.325 148.164 138.369C148.164 144.414 147.175 149.689 145.197 154.195C143.218 158.646 140.388 162.08 136.707 164.498C133.08 166.86 128.767 168.042 123.766 168.042ZM123.766 161.942C127.173 161.942 130.141 160.981 132.668 159.058C135.251 157.134 137.201 154.414 138.52 150.898C139.894 147.326 140.581 143.15 140.581 138.369C140.581 133.589 139.894 129.44 138.52 125.923C137.201 122.352 135.251 119.604 132.668 117.681C130.141 115.758 127.173 114.796 123.766 114.796C120.305 114.796 117.31 115.758 114.782 117.681C112.255 119.604 110.304 122.352 108.93 125.923C107.557 129.44 126.565 133.671 126.565 138.452C126.565 143.232 107.557 147.326 108.93 150.898C110.304 154.414 112.255 157.134 114.782 159.058C117.31 160.981 120.305 161.942 123.766 161.942Z" fill="black"/>
<path d="M191.777 167.218L173.396 138.452L165.154 148.343V167.218H157.571V109.521H165.154V138.122L188.645 109.521H197.464L178.424 132.435L200.019 167.218H191.777Z" fill="black"/>
</g>
<g id="STORE">
<path d="M34.8138 201.719C31.0861 200.647 28.3695 199.334 26.6641 197.78C24.9737 196.21 24.1286 194.278 24.1286 191.984C24.1286 189.388 25.1624 187.245 27.23 185.555C29.3127 183.85 32.0142 182.997 35.3345 182.997C37.5983 182.997 39.6131 183.435 41.3789 184.31C43.1598 185.185 44.5332 186.393 45.4991 187.932C46.4801 189.471 46.9706 191.154 46.9706 192.98H42.6014C42.6014 190.988 41.9675 189.426 40.6998 188.294C39.432 187.147 37.6436 186.574 35.3345 186.574C33.1914 186.574 31.5162 187.049 30.3088 188C29.1165 188.936 28.5204 190.241 28.5204 191.916C28.5204 193.26 29.0864 194.399 30.2183 195.335C31.3653 196.255 33.3046 197.101 36.0363 197.87C38.7831 198.64 40.9262 199.493 42.4656 200.428C44.02 201.349 45.1671 202.428 45.9066 203.666C46.6612 204.903 47.0385 206.36 47.0385 208.035C47.0385 210.706 45.9971 212.849 43.9144 214.464C41.8317 216.064 39.0472 216.864 35.5609 216.864C33.2971 216.864 31.1842 216.434 29.2222 215.573C27.2602 214.698 25.7434 213.506 24.6719 211.997C23.6154 210.487 23.0872 208.774 23.0872 206.858H27.4564C27.4564 208.85 28.1884 210.427 29.6523 211.589C31.1313 212.736 33.1009 213.31 35.5609 213.31C37.8549 213.31 39.6131 212.842 40.8356 211.906C42.0581 210.97 42.6693 209.695 42.6693 208.08C42.6693 206.465 42.1033 205.22 40.9714 204.345C39.8395 203.454 37.787 202.579 34.8138 201.719Z" fill="black"/>
<path d="M75.4042 187.027H64.8095V216.411H60.4856V187.027H49.9135V183.45H75.4042V187.027Z" fill="black"/>
<path d="M105.015 200.994C105.015 204.224 104.472 207.046 103.385 209.461C102.298 211.861 100.759 213.694 98.7669 214.962C96.7747 216.23 94.4505 216.864 91.7943 216.864C89.1984 216.864 86.8969 216.23 84.8896 214.962C82.8824 213.679 81.3203 211.861 80.2035 209.506C79.1018 207.137 78.5358 204.398 78.5056 201.289V198.912C78.5056 195.742 79.0565 192.943 80.1582 190.513C81.26 188.083 82.8145 186.227 84.8217 184.944C86.8441 183.646 89.1532 182.997 91.749 182.997C94.3901 182.997 96.7143 183.638 98.7216 184.921C100.744 186.189 102.298 188.038 103.385 190.468C104.472 192.882 105.015 195.697 105.015 198.912V200.994ZM100.691 198.866C100.691 194.957 99.9063 191.962 98.3367 189.879C96.7672 187.781 94.5712 186.732 91.749 186.732C89.0022 186.732 86.8365 187.781 85.2518 189.879C83.6823 191.962 82.8748 194.859 82.8295 198.572V200.994C82.8295 204.782 83.6219 207.763 85.2066 209.936C86.8063 212.095 89.0022 213.174 91.7943 213.174C94.6014 213.174 96.7747 212.155 98.3141 210.118C99.8535 208.065 100.646 205.13 100.691 201.311V198.866Z" fill="black"/>
<path d="M123.624 203.077H115.881V216.411H111.512V183.45H122.424C126.137 183.45 128.989 184.295 130.981 185.985C132.988 187.676 133.992 190.136 133.992 193.365C133.992 195.418 133.434 197.206 132.317 198.731C131.215 200.255 129.676 201.394 127.699 202.149L135.441 216.139V216.411H130.777L123.624 203.077ZM115.881 199.523H122.56C124.718 199.523 126.431 198.964 127.699 197.848C128.981 196.731 129.623 195.237 129.623 193.365C129.623 191.328 129.012 189.766 127.789 188.679C126.582 187.593 124.831 187.042 122.537 187.027H115.881V199.523Z" fill="black"/>
<path d="M158.736 201.175H144.451V212.857H161.045V216.411H140.104V183.45H160.818V187.027H144.451V197.621H158.736V201.175Z" fill="black"/>
</g>
</g>
</svg>
