<svg width="365" height="402" viewBox="0 0 365 402" fill="none" xmlns="http://www.w3.org/2000/svg">
<path fill-rule="evenodd" clip-rule="evenodd" d="M285.808 337.506H138.536V395.381C138.414 397.406 137.375 401.443 131.374 401.405H81.2885C79.1796 401.405 73.5429 400.22 73.1102 395.381L72.8318 337.506L5.72955 337.207C3.98526 336.556 0.779731 334.551 0.277374 331.035C-0.224983 327.518 0.0680682 301.343 0.277384 289.063C1.11464 286.831 2.99887 283.534 5.67811 283.2C8.35735 282.865 51.6212 282.665 72.8318 282.804V249.523H7.3755C3.92931 249.523 0.277384 246.751 0.277384 243.234L0.277364 195.759C-0.0826849 193.033 3.15776 188.867 7.88983 188.867C9.06163 188.867 12.4372 188.906 17.1533 188.96C31.4993 189.127 58.25 189.437 73.1102 189.227L72.8318 7.55462C73.1109 5.74056 74.6738 1.81938 78.6926 0.647214C82.7115 -0.524953 194.095 0.158811 249.285 0.647214C293.341 3.83201 366.45 38.8332 364.239 127.014C363.985 164.416 342.053 240.032 250.698 248.275L139.97 249.523V282.804H285.808C287.837 283.873 290.364 286.868 290.837 290.092C291.16 292.294 291.112 301.348 291.061 311.026C291.023 318.306 290.983 325.938 291.097 331.272C290.855 332.677 289.458 335.89 285.808 337.506ZM238.342 53.34H140.385V191.332H238.342C276.447 191.332 307.338 160.441 307.338 122.336C307.338 84.2305 276.447 53.34 238.342 53.34Z" fill="#D33434"/>
</svg>
